<svg xmlns="http://www.w3.org/2000/svg" viewBox="0 0 1000 1000">
  <path d="M800.9 402.8c-16.6 0-32.7 2.2-48.1 6.2l-56.4-155.7h104.4c19.1 0 33.8 6.8 40.3 18.7 4.5 8.2 4.1 17.4-.9 25.3-8.9 13.8-29.8 20.7-57.5 18.6-9.5-.6-17.7 6.5-18.4 15.9-.7 9.5 6.4 17.7 15.9 18.4 40.5 2.9 73-9.6 88.9-34.3 11.9-18.5 12.7-41.1 2.2-60.3-12.5-22.9-38.8-36.6-70.5-36.6H671.9c-5.6 0-10.9 2.7-14.1 7.3-3.2 4.6-4 10.5-2.1 15.7l19.7 54.3H385.1l-9.3-25.8h46.8c9.5 0 17.2-7.7 17.2-17.2s-7.7-17.2-17.2-17.2H310.9c-9.5 0-17.2 7.7-17.2 17.2s7.7 17.2 17.2 17.2h28.8c.2 1.2.4 2.4.9 3.6l12 33.1-69.8 115.1c-25.2-12.5-53.6-19.6-83.6-19.6-104.4.1-189.2 85-189.2 189.2C10 696.2 94.8 781 199.1 781c96.7 0 176.6-73 187.7-166.7h42.4c8.8 15.7 25.7 26.4 45 26.4 28.4 0 51.6-23.1 51.6-51.6 0-9.1-2.4-17.7-6.5-25.1l173.4-220 27.8 76.8c-64.2 30.3-108.7 95.6-108.7 171.1 0 104.3 84.8 189.1 189.1 189.1S990 696.2 990 591.9c0-104.2-84.8-189.1-189.1-189.1m-141.5-72.1l-166 210.7c-5.9-2.4-12.4-3.7-19.2-3.7-.6 0-1.2.1-1.9.1l-74.8-207 261.9-.1zm-291.9 18.1l72.8 201.6c-8.6 7.5-14.7 17.9-16.9 29.6h-35.7c-3.6-57.1-32.6-107.4-75.8-139.7l55.6-91.5zM353.2 580H227.4L294 470c33.4 26.1 55.8 65.4 59.2 110M199.1 746.7c-85.3 0-154.7-69.4-154.7-154.7 0-85.3 69.4-154.7 154.7-154.7 23.5 0 45.7 5.4 65.6 14.8l-80.3 132.6c-2.1 3.4-2.7 7.2-2.3 10.8-.1.6-.2 1.2-.2 1.8 0 9.5 7.7 17.2 17.2 17.2H352c-10.9 74.6-75.2 132.2-152.9 132.2m275.1-140.3c-9.5 0-17.2-7.7-17.2-17.2s7.7-17.2 17.2-17.2 17.2 7.7 17.2 17.2-7.7 17.2-17.2 17.2m326.7 140.3c-85.3 0-154.7-69.4-154.7-154.7 0-60.7 35.2-113.2 86.2-138.5l52.4 144.8c2.5 7 9.1 11.3 16.2 11.3 2 0 3.9-.3 5.9-1 8.9-3.2 13.5-13.1 10.3-22l-52.4-144.8c11.7-2.8 23.8-4.5 36.3-4.5 85.3 0 154.7 69.4 154.7 154.7-.2 85.3-69.6 154.7-154.9 154.7"/>
</svg>
